<?xml version="1.0" encoding="UTF-8"?>
<svg id="Layer_2" data-name="Layer 2" xmlns="http://www.w3.org/2000/svg" viewBox="0 0 114.36 39.12">
  <defs>
    <style>
      .cls-1 {
        fill: #fff;
      }
    </style>
  </defs>
  <g id="Layer_1-2" data-name="Layer 1">
    <g>
      <path class="cls-1" d="M52.56,19.57c.06-.09.07-.17.08-.25.06-.36.12-.72.18-1.08,0-.04.01-.07.02-.11.01-.05.05-.08.1-.08.05,0,.09,0,.14,0,1.04,0,2.07,0,3.11,0,.25,0,.25,0,.25.24,0,.07,0,.13,0,.2,0,6.73,0,13.46,0,20.19,0,.13.05.29-.03.38-.1.1-.27.04-.4.04-1.1,0-2.2,0-3.3,0-.07,0-.15,0-.22,0-.1,0-.12-.02-.12-.11,0-.09,0-.19,0-.28,0-2.12,0-4.24,0-6.36,0-.08,0-.17,0-.25,0-.01-.01-.04-.03-.04-.01,0-.04,0-.05,0-.03.02-.06.05-.08.08-.83.84-1.84,1.28-3.01,1.38-.8.07-1.58-.01-2.35-.26-.89-.29-1.63-.81-2.24-1.52-.63-.72-1.06-1.55-1.35-2.46-.26-.81-.4-1.65-.46-2.5-.05-.69-.07-1.38-.03-2.07.05-.92.18-1.82.47-2.69.28-.88.69-1.69,1.3-2.4.82-.96,1.85-1.55,3.09-1.76.72-.12,1.43-.13,2.14,0,.99.18,1.82.64,2.51,1.37.1.11.2.22.3.33ZM52.35,25.64v-.39c0-.84,0-1.68,0-2.52,0-.17-.04-.31-.13-.45-.31-.48-.73-.82-1.26-1.02-.25-.09-.5-.14-.76-.17-.39-.04-.78-.04-1.17.06-.71.18-1.22.62-1.58,1.25-.29.5-.43,1.05-.52,1.62-.12.68-.14,1.37-.13,2.06,0,.55.06,1.1.19,1.64.11.47.27.91.52,1.32.41.66.99,1.08,1.78,1.19.36.05.71.03,1.06-.02.8-.13,1.43-.52,1.87-1.21.09-.15.14-.29.14-.47,0-.96,0-1.92,0-2.88Z"/>
      <path class="cls-1" d="M36.33,31.94c-.08.08-.13.12-.17.16-.86.85-1.89,1.31-3.09,1.41-.83.07-1.64,0-2.43-.24-1.09-.34-1.97-.96-2.61-1.91-.37-.55-.58-1.16-.66-1.82-.07-.67-.03-1.32.15-1.97.29-1.08.94-1.89,1.88-2.48.64-.4,1.34-.66,2.07-.83.88-.2,1.77-.29,2.66-.29.58,0,1.16,0,1.74,0,.07,0,.15,0,.22,0,.04,0,.06-.03.07-.07,0,0,0-.02,0-.03,0-.47.03-.93-.06-1.4-.04-.22-.11-.43-.21-.63-.28-.55-.73-.86-1.32-.98-.5-.1-1-.08-1.5.05-.17.05-.33.11-.49.2-.48.27-.75.69-.83,1.23,0,.06-.01.13-.02.19,0,.05-.04.09-.09.09-.06,0-.11,0-.17,0-1.19,0-2.37,0-3.56,0-.24,0-.27,0-.25-.27.06-.84.36-1.59.87-2.27.53-.7,1.22-1.2,2.01-1.57.71-.33,1.45-.54,2.22-.65.79-.11,1.58-.13,2.37-.05,1.01.1,1.98.37,2.85.92,1.2.76,1.91,1.84,2.15,3.23.07.42.11.85.11,1.28,0,2.23,0,4.46,0,6.69,0,.68.07,1.36.22,2.03.07.32.17.63.32.92.04.09.07.17.06.27,0,.06-.04.1-.1.11-.06,0-.11,0-.17,0-1.2,0-2.39,0-3.59,0-.05,0-.09,0-.14,0-.09,0-.14-.04-.17-.11-.13-.29-.22-.59-.29-.9-.02-.09-.04-.18-.07-.31ZM36.17,27.68h0c0-.39,0-.78,0-1.17,0-.15-.02-.17-.16-.17-.73,0-1.45-.04-2.18.05-.47.05-.92.16-1.33.38-.41.22-.72.53-.9.96-.16.37-.22.77-.18,1.18.04.35.18.66.42.92.27.29.6.46.99.53.92.16,1.76-.03,2.53-.54.28-.18.5-.42.69-.69.08-.12.12-.24.12-.39,0-.35,0-.71,0-1.06Z"/>
      <path class="cls-1" d="M71.9,19.71c.08-.02.11-.09.15-.15.62-.69,1.35-1.2,2.23-1.49.79-.26,1.6-.34,2.43-.29.48.03.94.11,1.4.26,1.07.35,1.83,1.06,2.3,2.07.23.5.38,1.03.48,1.58.11.62.15,1.24.15,1.87,0,3.11,0,6.22,0,9.32,0,.09,0,.19,0,.28,0,.06-.04.1-.11.1-.07,0-.13,0-.2,0-1.16,0-2.32,0-3.47,0-.05,0-.09,0-.14,0-.13,0-.15-.02-.15-.14,0-.08,0-.17,0-.25,0-3.15,0-6.29,0-9.44,0-.37-.05-.72-.16-1.07-.19-.59-.58-.96-1.17-1.13-.46-.13-.94-.16-1.41-.12-.46.03-.88.17-1.26.41-.37.23-.66.55-.89.91-.05.07-.07.15-.07.24,0,.07,0,.15,0,.22,0,3.33,0,6.66,0,10,0,.43.05.38-.37.38-1.12,0-2.24,0-3.36,0-.08,0-.17,0-.25,0-.05,0-.09-.04-.09-.09,0-.09,0-.19,0-.28,0-2.91,0-5.82,0-8.74,0-1.91,0-3.83,0-5.74,0-.42-.03-.37.38-.37,1.03,0,2.05,0,3.08,0,.07,0,.15,0,.22,0,.13,0,.15.02.16.14.02.29.04.58.06.86.01.2.03.39.05.59,0,.03,0,.05.04.07Z"/>
      <path class="cls-1" d="M84.02,25.66c0-2.42,0-4.84,0-7.25,0-.39-.04-.35.34-.35,1.06,0,2.11,0,3.17,0,.07,0,.15,0,.22,0,.05,0,.09.03.1.08.01.09.02.19.03.28.03.37.05.74.08,1.12,0,.05,0,.09.02.14,0,.01.02.03.03.04.01,0,.04,0,.05-.01.04-.04.08-.08.11-.12.77-.87,1.71-1.43,2.85-1.67.61-.13,1.22-.17,1.84-.12.39.03.78.09,1.16.19,1.16.32,1.99,1.03,2.5,2.11.27.56.42,1.15.52,1.77.09.57.12,1.15.12,1.73,0,3.1,0,6.2,0,9.3,0,.09,0,.19,0,.28,0,.07-.04.1-.11.1-.06,0-.11,0-.17,0-1.17,0-2.33,0-3.5,0-.07,0-.13,0-.2,0-.05,0-.09-.03-.09-.09,0-.09,0-.19,0-.28,0-3.15,0-6.29,0-9.44,0-.35-.03-.69-.13-1.02-.07-.24-.18-.47-.34-.67-.2-.24-.44-.4-.73-.49-.8-.25-1.6-.26-2.39.04-.56.21-.98.61-1.3,1.11-.05.07-.08.15-.07.24,0,.07,0,.15,0,.22,0,3.31,0,6.63,0,9.94,0,.14.06.31-.04.41-.11.11-.28.04-.43.04-1.1,0-2.2,0-3.31,0-.32,0-.31.03-.31-.3,0-2.44,0-4.87,0-7.31Z"/>
      <path class="cls-1" d="M10.4,24.75c0,2.72,0,5.43,0,8.15,0,.41.04.36-.35.36-1.17,0-2.33,0-3.5,0-.07,0-.13,0-.2,0-.14,0-.16-.02-.16-.17,0-.09,0-.19,0-.28,0-5.39,0-10.77,0-16.16,0-.1,0-.21,0-.31,0-.06-.03-.11-.1-.11-.08,0-.17,0-.25,0-1.83,0-3.66,0-5.49,0-.35,0-.34.04-.34-.33,0-.95,0-1.9,0-2.86,0-.25,0-.25.25-.25.06,0,.11,0,.17,0,5.28,0,10.55,0,15.83,0,.1,0,.21,0,.31,0,.06,0,.1.04.11.1,0,.07,0,.13,0,.2,0,.94,0,1.89,0,2.83,0,.03,0,.06,0,.08,0,.21,0,.21-.22.22-.07,0-.13,0-.2,0-1.82,0-3.64,0-5.46,0-.08,0-.17,0-.25,0-.11,0-.12.02-.13.14,0,.08,0,.17,0,.25,0,2.71,0,5.41,0,8.12Z"/>
      <path class="cls-1" d="M64.36,23.03c0,3.29,0,6.57,0,9.86,0,.09,0,.19,0,.28,0,.07-.04.1-.11.1-.07,0-.13,0-.2,0-1.2,0-2.41,0-3.61,0-.05,0-.09,0-.14,0-.14,0-.15-.02-.16-.17,0-.07,0-.15,0-.22,0-6.56,0-13.13,0-19.69,0-.07,0-.15,0-.22,0-.14.02-.15.17-.16.06,0,.11,0,.17,0,1.18,0,2.35,0,3.53,0,.07,0,.13,0,.2,0,.14,0,.15.02.16.17,0,.08,0,.17,0,.25,0,3.27,0,6.54,0,9.8Z"/>
      <path class="cls-1" d="M21.83,19.76c.11-.07.14-.14.18-.2.22-.32.46-.61.74-.87.56-.5,1.21-.79,1.96-.89.54-.07,1.06-.03,1.58.1.18.04.19.05.18.22,0,.59,0,1.18-.03,1.76-.02.53-.01,1.06-.02,1.6,0,.09,0,.19,0,.28,0,.07-.05.1-.11.09-.08,0-.17,0-.25-.02-.57-.07-1.13-.1-1.7-.04-.52.05-1.01.18-1.46.45-.37.22-.65.52-.86.9-.06.1-.1.2-.09.32,0,.07,0,.15,0,.22,0,3.07,0,6.14,0,9.21,0,.42.04.37-.38.37-1.13,0-2.26,0-3.39,0-.31,0-.31.03-.31-.3,0-4.87,0-9.75,0-14.62,0-.04,0-.07,0-.11,0-.16.02-.18.17-.18.05,0,.09,0,.14,0,1.07,0,2.15,0,3.22,0,.07,0,.13,0,.2,0,.09,0,.11.02.12.12.02.29.04.58.06.87.02.23.03.46.05.72Z"/>
      <path class="cls-1" d="M95.33,13.05c.02,1-.73,1.8-1.57,2-.41.1-.79.06-1.19-.05-.92-.25-1.84-.49-2.75-.74-.85-.23-1.71-.46-2.56-.69-.07-.02-.14-.04-.21-.06-.55-.2-.77-.84-.45-1.33.17-.27.43-.37.74-.39.16,0,.32.03.47.07.81.22,1.62.43,2.43.65.68.19,1.37.37,2.05.56.1.03.2.05.3.06.47.04.85-.36.77-.83-.02-.14-.06-.27-.1-.41-.3-1.11-.6-2.22-.89-3.32-.32-1.22-.64-2.43-.96-3.65-.06-.23-.12-.45-.17-.68-.11-.46.19-1.03.86-1.07.36-.02.73.24.85.61.09.26.15.52.22.78.2.74.4,1.48.59,2.22.21.77.41,1.55.61,2.32.29,1.11.59,2.22.89,3.33.06.21.09.42.08.63Z"/>
      <path class="cls-1" d="M101.6,19.31c.25,0,.48.07.72.13.86.23,1.73.47,2.59.7.88.24,1.76.47,2.65.71.09.02.18.05.27.08.43.15.61.6.56.93-.06.45-.39.74-.82.77-.26.02-.5-.06-.74-.13-1.08-.29-2.16-.59-3.24-.88-.4-.11-.79-.21-1.19-.32-.24-.07-.46-.02-.66.14-.22.18-.31.42-.25.7.07.3.15.6.23.89.16.59.31,1.17.47,1.76.22.82.44,1.64.66,2.46.18.67.35,1.33.53,2,.07.28.15.56.22.84.09.37,0,.68-.28.94-.31.29-.98.29-1.27-.13-.09-.13-.16-.27-.2-.43-.35-1.32-.7-2.63-1.05-3.95-.24-.91-.48-1.82-.72-2.73-.17-.64-.34-1.28-.51-1.92-.29-1.06.35-2.27,1.59-2.55.14-.03.3-.03.44-.04Z"/>
      <path class="cls-1" d="M110.28,19.76c-.16.02-.32-.06-.48-.1-1.15-.3-2.3-.62-3.46-.93-.88-.24-1.76-.48-2.64-.72-.46-.12-.92-.24-1.38-.36-.88-.24-1.33-.97-1.41-1.6-.08-.64.1-1.18.55-1.63.81-.82,1.63-1.64,2.45-2.46.14-.14.29-.26.49-.3.37-.08.69.01.93.31.24.3.24.63.08.97-.06.13-.16.23-.25.33-.56.55-1.11,1.11-1.66,1.66-.09.09-.17.19-.22.31-.14.31.08.79.41.9.07.02.14.05.21.07,1.05.28,2.11.57,3.16.85,1.15.31,2.3.62,3.45.93.52.14.82.65.61,1.21-.13.34-.5.57-.85.56Z"/>
      <path class="cls-1" d="M98.97,13.74c-.66-.02-1.1-.21-1.47-.58-.26-.26-.41-.57-.51-.92-.26-1-.53-2-.79-3-.04-.14-.08-.29-.12-.43-.12-.45.17-.95.63-1.07.45-.12.95.14,1.09.6.1.32.18.65.27.97.14.51.27,1.03.41,1.54.06.23.21.39.43.49.25.11.47.06.69-.08.02-.02.05-.03.06-.05.38-.37.76-.75,1.14-1.12.39-.39.78-.78,1.17-1.17.14-.14.28-.27.42-.41.72-.72,1.44-1.44,2.16-2.16.07-.07.15-.14.23-.2.42-.3,1.11-.18,1.33.39.12.31.09.6-.1.87-.04.05-.08.1-.13.15-1.73,1.73-3.46,3.46-5.19,5.19-.18.18-.36.35-.55.52-.37.34-.82.47-1.17.48Z"/>
      <path class="cls-1" d="M107.94,10.48c.06.17-.08.34-.1.53,0,.02-.01.03-.03.05-.22.25-.45.48-.77.58-.19.06-.41.06-.6-.01-.08-.03-.16-.03-.24-.07-.3-.16-.54-.37-.64-.72-.04-.15-.09-.3-.08-.46,0-.08,0-.16.04-.24.08-.18.12-.38.28-.53.16-.16.35-.27.55-.36.04-.02.09-.03.13-.03.15,0,.3-.02.45,0,.18.03.36.06.5.2.02.03.05.06.08.08.19.11.31.27.35.49.12.14.07.3.08.49Z"/>
      <path class="cls-1" d="M85.66,11.92s0,.09,0,.14c.02.2-.05.36-.18.5-.03.03-.05.07-.07.12-.05.11-.14.2-.25.25-.03.02-.07.03-.1.05-.15.1-.32.14-.5.12-.06,0-.13-.01-.19,0-.19.04-.34-.09-.51-.1,0,0-.02,0-.02-.01-.21-.22-.48-.38-.53-.72-.09-.14-.07-.3-.08-.46,0-.11.04-.2.07-.29.03-.1.05-.19.13-.27.04-.04.06-.11.09-.17.11-.16.3-.21.44-.33.2.01.36-.13.57-.1.28.04.53.12.75.31.17.15.27.35.37.54.03.05.03.11.03.16,0,.08,0,.17,0,.25h0Z"/>
      <path class="cls-1" d="M104.72,33.23c.07.25-.07.47-.19.66-.11.18-.27.32-.47.42-.16.08-.32.13-.5.12-.05,0-.09,0-.14,0-.29.01-.52-.12-.72-.3-.09-.09-.18-.18-.25-.29-.15-.23-.19-.48-.15-.74.04-.25.12-.49.29-.7.19-.23.45-.33.71-.39.17-.04.37-.06.54.05.06.04.14.02.21.06.23.13.41.29.54.53.1.19.17.37.13.59Z"/>
      <path class="cls-1" d="M106.16,4.84s0-.06,0-.08c-.05-.25.08-.46.2-.65.11-.17.27-.33.48-.42.23-.09.48-.17.73-.11.15.04.33.05.45.19.05.07.16.05.21.13.11.16.24.31.31.51.06.16.07.32.07.49,0,.15-.09.28-.12.42-.02.1-.08.21-.17.28-.11.08-.19.19-.32.27-.2.11-.4.18-.64.15-.07,0-.15,0-.22,0-.1,0-.18-.01-.26-.07-.13-.09-.26-.17-.39-.25-.14-.25-.38-.46-.32-.8,0-.02,0-.04,0-.06Z"/>
      <path class="cls-1" d="M91.27.01c.06,0,.08,0,.1,0,.45-.03.75.23,1.01.54.07.08.12.18.12.3,0,.11-.01.22.07.32.03.04.03.12,0,.16-.06.08-.06.17-.07.26-.01.12-.07.23-.15.32-.1.11-.21.21-.31.32-.05.06-.13.08-.19.11-.16.06-.32.15-.5.14-.07,0-.13,0-.19-.04-.05-.04-.1-.04-.16-.04-.16-.01-.3-.08-.42-.2-.08-.09-.18-.17-.26-.26-.11-.13-.19-.27-.18-.45,0-.1,0-.21,0-.31-.02-.22.04-.41.15-.6.1-.18.23-.3.4-.4.2-.11.4-.2.58-.16Z"/>
      <path class="cls-1" d="M96.16,4.58c.07,0,.15,0,.22,0,.17-.03.3.09.46.1.14.12.29.24.38.4,0,0,0,.02,0,.03.22.29.16.63.16.96,0,.07-.06.11-.08.17-.06.21-.21.37-.37.51-.13.11-.27.21-.45.19-.12-.02-.21.1-.32.06-.1-.03-.19-.07-.3-.06-.08,0-.14-.03-.21-.06-.14-.05-.23-.19-.37-.24-.05-.15-.21-.24-.24-.4-.04-.17-.15-.32-.12-.5,0-.05,0-.11.04-.16.03-.04.04-.08.04-.13,0-.19.09-.33.21-.46.07-.07.13-.13.2-.2.14-.15.31-.23.52-.22.07,0,.13,0,.2,0Z"/>
      <path class="cls-1" d="M110.34,23.72c-.08,0-.17,0-.25,0-.17,0-.31-.06-.43-.17-.1-.09-.21-.19-.29-.3-.09-.11-.17-.22-.17-.37,0-.07,0-.13-.05-.18-.04-.05-.05-.11-.03-.16.08-.29.08-.6.35-.81.13-.1.22-.25.39-.31.07-.03.13-.06.21-.05.09,0,.19,0,.27-.06.02-.01.06-.02.08,0,.12.08.25.04.38.07.11.02.21.07.29.15.12.11.22.22.34.33.03.03.06.07.06.12-.01.13.12.21.09.34-.02.11,0,.22,0,.33.02.3-.13.53-.3.75-.2.25-.47.33-.78.33-.05,0-.09,0-.14,0h0Z"/>
      <path class="cls-1" d="M114.34,19.64c.06.2-.03.37-.09.54-.04.13-.13.26-.26.34-.03.02-.07.04-.09.06-.12.16-.3.22-.48.25-.17.03-.36.03-.53,0-.3-.06-.57-.21-.76-.46-.05-.07-.1-.14-.13-.21-.08-.23-.16-.46-.11-.7.08-.39.27-.71.64-.92.28-.16.57-.15.86-.12.18.02.38.09.5.26.02.03.05.05.08.08.09.09.18.19.27.28.03.2.15.38.09.59Z"/>
    </g>
  </g>
</svg>